<svg width="800" height="800" viewBox="0 0 800 800" fill="none" xmlns="http://www.w3.org/2000/svg">
<g clip-path="url(#clip0_12_8)">
<path d="M400 0C179.48 0 0 179.46 0 400C0 620.54 179.48 800 400 800C620.58 800 800 620.54 800 400C800 179.46 620.58 0 400 0ZM576.36 357.5L405.12 528.78C393.2 540.68 377.58 546.64 361.96 546.64C346.38 546.64 330.74 540.68 318.84 528.78L223.68 433.62C199.86 409.8 199.86 371.14 223.68 347.36C247.5 323.52 286.1 323.52 309.96 347.36L361.96 399.36L490.12 271.22C513.88 247.44 552.58 247.44 576.36 271.22C600.2 295.04 600.2 333.68 576.36 357.5Z" fill="url(#paint0_linear_12_8)"/>
</g>
<defs>
<linearGradient id="paint0_linear_12_8" x1="400" y1="0" x2="400" y2="800" gradientUnits="userSpaceOnUse">
<stop stop-color="#797979"/>
<stop offset="0.465" stop-color="#3D3A3A"/>
<stop offset="1"/>
</linearGradient>
<clipPath id="clip0_12_8">
<rect width="800" height="800" fill="white"/>
</clipPath>
</defs>
</svg>
