<svg width="343" height="102" viewBox="0 0 343 102" fill="none" xmlns="http://www.w3.org/2000/svg">
<path d="M335.605 22.8271C335.679 22.9506 335.786 23.0659 335.802 23.1812C337.532 36.1841 337.532 36.1017 324.611 36.1099C312.695 36.1099 300.771 36.5793 288.864 36.3488C283.75 36.2499 279.418 41.9402 279.599 45.4895C279.855 50.5292 283.857 54.2267 289.391 54.2267C299.256 54.2267 309.13 53.8726 318.979 54.1773C339.681 54.8278 347.644 71.2152 340.348 88.5332C337.062 96.3234 329.429 99.2715 321.433 99.4691C304.18 99.9055 286.912 99.7079 269.652 99.8397C267.354 99.8561 266.596 98.9832 266.424 96.7434C265.567 85.7086 265.509 85.8486 276.297 85.9227C290.815 86.0298 305.358 85.5192 319.86 86.0298C328.086 86.318 331.479 77.9184 327.732 72.0881C326.052 69.4777 323.878 68.4977 320.889 68.4648C309.525 68.366 298.153 68.1436 286.788 68.0201C281.115 67.9542 276.544 65.5826 272.559 61.6957C265.114 54.4408 264.447 45.4977 267.758 36.6781C270.862 28.4103 277.574 23.0494 286.895 22.8847C303.036 22.5965 319.176 22.8024 335.621 22.8024L335.605 22.8271Z" fill="white"/>
<path d="M232.982 6.5879C232.982 10.2263 230.032 13.1758 226.394 13.1758C222.755 13.1758 219.806 10.2263 219.806 6.5879C219.806 2.9495 222.755 0 226.394 0C230.032 0 232.982 2.9495 232.982 6.5879Z" fill="white"/>
<path d="M208.277 6.5879C208.277 10.2263 205.328 13.1758 201.689 13.1758C198.051 13.1758 195.101 10.2263 195.101 6.5879C195.101 2.9495 198.051 0 201.689 0C205.328 0 208.277 2.9495 208.277 6.5879Z" fill="white"/>
<path d="M214.083 101.437C209.191 101.091 203.946 101.083 198.832 100.293C183.301 97.888 173.518 87.2074 172.077 70.6553C171.475 63.7627 171.953 56.7465 172.274 49.8045C172.949 35.2041 185.952 23.0906 199.952 21.913C209.43 21.1142 219.172 21.0895 228.584 22.3C244.609 24.367 255.092 36.8675 255.381 53.0573C255.512 60.5346 255.422 68.0942 254.491 75.4974C252.803 88.8955 240.97 99.5761 227.506 100.614C223.141 100.951 218.768 101.157 214.083 101.445V101.437ZM213.053 87.3474C215.244 87.3474 217.434 87.3226 219.617 87.3474C232.257 87.4956 240.846 80.9488 241.579 70.0788C241.982 64.1003 241.908 58.0477 241.488 52.0691C240.862 43.3484 234.728 36.4887 225.908 35.7476C217.377 35.0312 208.689 35.2041 200.141 35.8958C193.166 36.4558 186.99 42.8378 186.43 49.7551C185.829 57.1912 185.722 64.7591 186.356 72.1787C187.064 80.4301 193.66 86.2603 201.969 86.9356C205.634 87.2321 209.356 87.3474 213.053 87.3474Z" fill="white"/>
<path d="M163.825 99.7408C158.201 99.7408 153.606 99.4444 149.077 99.8232C144.226 100.227 140.438 98.9503 136.872 95.5164C130.194 89.0849 123.293 82.8429 116.096 76.9961C114.169 75.4315 110.834 75.0609 108.149 75.0939C104.773 75.1268 102.887 74.4351 102.994 70.7211C103.085 67.5013 103.011 64.2732 103.011 60.7652C112.711 60.7652 121.728 60.8063 130.746 60.7569C143.683 60.691 150.468 51.4103 146.647 38.8769C146.351 37.8969 144.86 36.604 143.905 36.5876C129.263 36.3158 114.614 36.2335 99.9637 36.1017C96.925 36.077 96.9415 38.1192 96.9497 40.3015C97.0156 57.5042 97.1062 74.7068 97.0815 91.9095C97.0733 101.717 97.4274 99.7326 89.3078 99.7985C87.6937 99.815 86.0797 99.7985 84.0786 99.7985C83.9798 97.9539 83.8398 96.5045 83.8398 95.047C83.8398 74.5668 83.8728 54.0867 83.8892 33.5983C83.8892 33.3265 83.8892 33.0548 83.8892 32.783C84.0127 23.5517 84.5398 22.8765 93.5899 22.8106C110.694 22.6871 127.806 22.4565 144.91 22.8106C152.955 22.9753 157.863 27.4304 159.609 35.1959C161.371 43.0272 161.355 51.1057 158.547 58.6241C154.808 68.6212 146.853 73.7186 135.604 75.6456C144.687 83.4028 153.77 91.1519 163.817 99.7326L163.825 99.7408Z" fill="white"/>
<path d="M19.7395 54.3667H63.5161C63.5161 58.3524 63.7055 62.1404 63.3761 65.879C63.302 66.7437 61.441 68.1107 60.3869 68.1272C47.9358 68.2919 35.4846 68.2095 23.0417 68.2836C20.6124 68.3001 19.5748 67.5013 19.6984 64.9567C19.8631 61.5804 19.7395 58.1877 19.7395 54.3667Z" fill="white"/>
<path d="M70.2605 86.0957C70.0793 90.2049 70.0711 93.7541 69.6511 97.2622C69.5441 98.1762 68.1442 99.675 67.3371 99.675C50.2251 99.5844 33.0883 99.7985 16.0091 98.9009C5.872 98.3656 0.11582 91.1272 0.0499413 81.0395C-0.0488773 64.9156 0.0252367 48.7917 0.0499413 32.6678C0.0581762 23.7576 1.12871 22.613 10.2365 22.5389C27.085 22.4071 43.9336 22.4071 60.7822 22.3577C61.3339 22.3577 61.8856 22.333 62.4291 22.3824C64.9408 22.6377 69.5359 22.6295 69.6264 23.2471C70.1699 27.0845 69.9229 31.0949 69.3547 34.9653C69.2559 35.6323 66.3572 36.2582 64.7514 36.2747C49.2698 36.3735 33.7882 36.3241 18.3067 36.3405C16.9561 36.3405 15.6056 36.4641 13.9834 36.5382C13.8434 37.7734 13.6128 38.8028 13.6128 39.8321C13.6128 52.2668 13.6128 64.7014 13.7034 77.1361C13.761 85.3545 14.6833 86.2027 23.0664 86.1533C37.4528 86.071 51.8391 85.9639 66.2254 85.8816C67.4195 85.8816 68.6218 86.0051 70.2605 86.1039V86.0957Z" fill="white"/>
</svg>
