<svg width="320" height="218" viewBox="0 0 320 218" fill="none" xmlns="http://www.w3.org/2000/svg">
<path d="M135.162 215.827C140.545 202.908 144.555 189.154 151.607 177.204C167.461 150.182 189.72 128.65 214.482 109.675C218.035 106.957 221.776 104.427 225.302 101.681C238.357 91.4268 238.437 83.9983 223.068 77.1081C205.627 69.3029 187.217 63.4085 168.806 58.1333C125.472 45.7525 81.7879 34.5829 38.4806 22.1214C28.3065 19.1876 18.9936 13.1857 9.27707 8.63707C8.71184 31.3531 27.0683 46.9098 82.9453 70.0296C75.2743 72.5865 69.5951 75.1972 63.6468 76.2738C57.2408 77.4311 50.5927 77.162 41.5759 77.6464C62.1395 101.466 87.5748 110.536 115.163 115.515C115.325 116.727 115.459 117.911 115.621 119.122C102.055 121.41 88.463 123.698 72.6097 126.362C85.5023 135.002 98.2873 143.614 111.072 152.2C88.4361 147.329 70.8333 134.84 56.4603 114.762C61.3051 114.439 65.2617 114.143 71.4254 113.712C47.1205 101.358 28.8717 85.7747 18.3207 60.5018C25.2112 61.6053 30.7827 62.5204 36.3273 63.4085C16.2751 45.8601 0.421805 26.4546 0.125732 0.105103C26.207 11.1671 51.8577 25.1627 79.3117 32.9411C112.741 42.415 147.758 46.1024 181.834 53.3694C197.498 56.7068 213.244 61.1746 227.806 67.7149C250.899 78.104 252.46 95.5986 232.247 110.859C205.519 131.045 182.13 154.138 164.527 183.771C209.261 163.02 255.34 149.805 304.758 155.888C305.296 154.004 305.861 152.577 305.7 152.469C296.387 147.221 291.461 138.205 284.867 130.399C278.972 123.428 267.506 121.194 260.562 117.857C273.751 116.565 287.37 119.714 295.499 135.836C296.844 138.528 300.639 140.223 303.6 141.838C312.671 146.817 319.454 153.25 319.992 166.115C251.895 157.233 192.896 179.842 138.419 218.007C137.369 217.253 136.319 216.5 135.243 215.773L135.162 215.827Z" fill="white"/>
</svg>
