<svg width="51" height="51" viewBox="0 0 51 51" fill="none" xmlns="http://www.w3.org/2000/svg">
<path d="M16.9997 25.5157C16.9914 20.822 20.7903 17.0091 25.4831 17.0009C30.1768 16.9917 33.9905 20.7889 33.9996 25.4835C34.0087 30.1781 30.2098 33.9902 25.5153 33.9993C20.8225 34.0083 17.0088 30.2103 16.9997 25.5157ZM12.4069 25.5249C12.421 32.7567 18.2944 38.6063 25.5245 38.5921C32.7553 38.5782 38.6082 32.7063 38.5941 25.4745C38.5801 18.2451 32.7058 12.3922 25.4741 12.4063C18.2439 12.4204 12.3929 18.2946 12.4069 25.5249ZM36.0247 11.8692C36.028 13.558 37.401 14.9254 39.0899 14.9221C40.7794 14.9188 42.1468 13.5464 42.1443 11.8577C42.141 10.1689 40.7679 8.80065 39.0783 8.80404C37.3887 8.80733 36.0214 10.1804 36.0247 11.8692ZM15.2366 46.2743C12.7506 46.1661 11.4006 45.7529 10.5009 45.4068C9.30946 44.9458 8.4593 44.3931 7.56451 43.505C6.67141 42.6134 6.11698 41.7657 5.65181 40.5767C5.30238 39.677 4.88183 38.3287 4.76528 35.8426C4.63888 33.1548 4.60999 32.3485 4.59764 25.5397C4.58439 18.7326 4.6092 17.9262 4.72654 15.236C4.83302 12.7517 5.24869 11.3999 5.59403 10.501C6.05503 9.30796 6.60617 8.45939 7.49598 7.5647C8.38738 6.66991 9.23506 6.11718 10.4248 5.652C11.3238 5.30078 12.6721 4.88352 15.1573 4.76548C17.8466 4.63818 18.6521 4.61098 25.4592 4.59774C32.2678 4.58449 33.0742 4.60849 35.7644 4.72663C38.2487 4.83481 39.6004 5.24629 40.4986 5.59413C41.6907 6.05512 42.5408 6.60467 43.4348 7.49607C44.3287 8.38757 44.8832 9.23356 45.3483 10.4259C45.6994 11.3223 46.1167 12.6723 46.2341 15.1567C46.3621 17.846 46.391 18.6524 46.4034 25.4595C46.4165 32.2683 46.3917 33.0748 46.2737 35.7633C46.1654 38.2493 45.7531 39.6003 45.4062 40.5007C44.9451 41.6914 44.3941 42.5415 43.5034 43.4363C42.6128 44.3277 41.7651 44.8838 40.5746 45.3489C39.6772 45.6993 38.3273 46.1173 35.8437 46.2355C33.1545 46.3619 32.3488 46.3908 25.5393 46.4032C18.7322 46.4164 17.9268 46.3908 15.2366 46.2743ZM14.9392 0.176674C12.2259 0.304772 10.3728 0.739268 8.75335 1.37388C7.07702 2.02742 5.65599 2.90318 4.24243 4.32262C2.82709 5.74285 1.95789 7.16636 1.30934 8.84438C0.681499 10.4679 0.255968 12.3219 0.136138 15.0369C0.0172044 17.7568 -0.0100885 18.6243 0.00315952 25.5488C0.0164076 32.4724 0.046888 33.3416 0.176579 36.0623C0.306271 38.7748 0.739273 40.6271 1.37378 42.2473C2.02812 43.9237 2.90309 45.344 4.32332 46.7585C5.74275 48.173 7.16717 49.0413 8.84598 49.6908C10.4678 50.3177 12.3225 50.745 15.0367 50.8639C17.7565 50.9837 18.6248 51.0101 25.5476 50.997C32.4736 50.9837 33.342 50.9531 36.0619 50.8243C38.7751 50.6946 40.6265 50.2601 42.2476 49.6271C43.9239 48.9711 45.3449 48.0978 46.7587 46.6775C48.1723 45.258 49.0415 43.8337 49.69 42.1549C50.3179 40.533 50.7451 38.6781 50.8631 35.9657C50.9821 33.2441 51.0103 32.3749 50.997 25.4513C50.9837 18.5268 50.9525 17.6593 50.8236 14.9403C50.6947 12.2253 50.2601 10.3738 49.6264 8.75274C48.9712 7.07642 48.0972 5.65688 46.6777 4.24163C45.2583 2.82798 43.8339 1.95709 42.1551 1.31023C40.5324 0.682291 38.6784 0.254369 35.9643 0.13703C33.2444 0.0164026 32.3761 -0.00999389 25.4509 0.00315455C18.5273 0.0164026 17.659 0.0460862 14.9392 0.176674Z" fill="white"/>
</svg>
