<svg width="43" height="51" viewBox="0 0 43 51" fill="none" xmlns="http://www.w3.org/2000/svg">
<path d="M36.5765 10.5217C33.9207 8.76575 32.0044 5.9552 31.4064 2.68091C31.2772 1.97367 31.2055 1.24508 31.2055 0.5H22.7289L22.7146 34.9493C22.573 38.8077 19.4416 41.9034 15.6032 41.9034C14.4102 41.9034 13.287 41.6017 12.2977 41.073C10.0293 39.8632 8.47658 37.4523 8.47658 34.6787C8.47658 30.6942 11.674 27.452 15.6023 27.452C16.3361 27.452 17.0393 27.5752 17.7042 27.7857V19.0106C17.0154 18.9146 16.316 18.8564 15.6023 18.8564C6.9994 18.8564 0 25.9531 0 34.6787C0 40.031 2.63673 44.7683 6.66168 47.6322C9.19508 49.4377 12.2786 50.5 15.6032 50.5C24.2071 50.5 31.2055 43.4023 31.2055 34.6787V17.209C34.5301 19.6286 38.6039 21.0547 43 21.0547V12.4582C40.6321 12.4582 38.4269 11.7451 36.5765 10.5217Z" fill="white"/>
</svg>
